<?xml version="1.0" encoding="utf-8"?>
<!-- Generator: Adobe Illustrator 16.0.0, SVG Export Plug-In . SVG Version: 6.00 Build 0)  -->
<!DOCTYPE svg PUBLIC "-//W3C//DTD SVG 1.1//EN" "http://www.w3.org/Graphics/SVG/1.1/DTD/svg11.dtd">
<svg version="1.1" id="圖層_1" xmlns="http://www.w3.org/2000/svg" xmlns:xlink="http://www.w3.org/1999/xlink" x="0px" y="0px"
	 width="250px" height="250px" viewBox="0 0 250 250" enable-background="new 0 0 250 250" xml:space="preserve">
<path fill="#64b78f" stroke="#64b78f" stroke-width="8" stroke-miterlimit="10" d="M103.194,7.378c1.16-0.398,2.304,1.795,5.022,2.399
	c2.717,0.604,8.804,1.921,8.804,1.921s0.396,2.512,0,3.146c-0.399,0.62,1,2.05,1,2.05l2.051,2.288c0,0,1.889,4.084,6.878,5.879
	c4.99,1.779,10.854,1.938,13.301,2.289c2.464,0.35,4.688,1.128,7.355-0.253c2.687-1.368,5.197-1.606,8.121,1.175
	c2.907,2.765,10.692,5.385,16.002,6.483c5.369,1.113,8.389,3.749,10.105,8.93c1.748,5.212,5.893,10.265,5.229,11.537
	c-0.638,1.255,0.664,4.194,3.049,8.183c2.447,3.988,3.102,5.29,3.988,6.753c0.859,1.462,0.652,3.846,2.193,4.814
	c1.542,1.001,4.654,3.178,7.341,3.83c2.685,0.667,3.435,1.906,1.354,5.592c-1.672,2.925-6.471,6.643-5.6,9.106
	c0.891,2.463,0.241,6.277,0.241,9.042s-0.89,7.961-1.335,9.184c-0.46,1.208-1.336,2.098-1.111,4.45
	c0.238,2.32,1.334,3.21-2.875,5.149c-4.197,1.938-10.949,2.938-13.968,5.925c-3.034,2.974-10.313,11.301-11.155,16.955
	c-0.858,5.626-1.924,11.886-3.194,14.649c-1.255,2.767-1.667,11.634-1.908,13.572c-0.205,1.922,0.431,5.369,1.7,11.438
	c1.525,7.296,5.531,13.127,7.66,16.907c2.162,3.813,3.813,8.645,5.736,11.729c1.954,3.052,2.78,9.519,4.752,12.613
	c1.955,3.085,4.004,2.323,5.975,5.63c1.984,3.303-1.176,7.052,6.832,15.38l-154.705-0.222c0,0-6.246-13.51,7.595-20.499
	c12.188-6.198,7.817-1.56,23.645-10.981c16.208-9.646,18.735-13.331,24.931-22.355c6.31-9.185,12.425-18.241,15.876-21.342
	c2.525-2.271,1.556-6.595,3.925-10.662c2.352-4.037,5.339-9.09,5.529-10.232c0.207-1.111,0.603-5.244,1.003-7.15
	c0.411-1.892,2.191-2.033,1.588-4.228c-0.572-2.19-0.175-3.892-0.381-6.101c-0.191-2.241-1.018-2.91-2.21-3.561
	c-1.177-0.638,1.414-2.355,1.414-4.038c0-1.684-0.458-5.513-1.937-7.69c-1.716-1.572-4.608-3.242-4.799-4.67
	c-0.206-1.463,0.97-3.433-0.206-3.688c-1.176-0.254-1.383-1.906-0.796-2.512c0.604-0.635-0.984-2.319-2.161-2.541
	c-1.19-0.254-1.764,1.286-1.97-1.462c-0.175-2.733-0.175-3.48,0.78-4.513c1-1.048,0.603-1.001-1.161-1.906
	c-1.764-0.891-2.145-1.606-1.541-2.766c0.57-1.176-0.652-2.51-3.578-3.273c-2.906-0.762-3.495,0.191-5.543-0.794
	c-3.449-1.62-2.891-3.496-4.975-3.4c-2.112,0.063-2.875-1.843-3.988-2.256c-1.145-0.398-0.937-2.225-1.333-2.924
	c-0.383-0.667-0.763-0.444-2.448-0.397c-1.699,0.049-2.082-2.622-3.003-3.607c-0.954-0.954-0.954-1.128-2.081-1.176
	c-1.114-0.015-1.495-2.479-1.685-4.639c-0.193-2.13,0.19-2.893-2.606-3.783c-2.781-0.858-5.911,0.668-6.643-4.434
	c-0.748-5.084-0.192-11.616,0.174-15.43c0.366-3.827,1.844-7.658,4.991-13.57c3.163-5.942,5.211-6.101,4.847-8.389
	c-0.382-2.288,0.364-3.669,2.604-7.135c2.258-3.496,3.003-3.622,3.003-5.989c0-2.352,0-3.432,1.892-5.61
	c1.891-2.177,3.036-1.843,3.606-1.764c0.559,0.08,3.037,1.987,3.433,2.829c0.381,0.857,1.145,0.35,1.718,0.794
	C100.11,8.505,103.194,7.378,103.194,7.378z"/>
</svg>
